 <svg xmlns="http://www.w3.org/2000/svg" viewBox="0 0 35.2265625 61.875" width="35.2265625" height="61.875"><g fill="#ffffff" stroke-width="1.5" stroke="none"><path d="M 27.38671875 54.66796875 L 27.38671875 54.66796875 L 27.38671875 35.0859375 Q 27.38671875 32.8359375 26.490234375 31.166015625 Q 25.59375 29.49609375 23.80078125 28.58203125 Q 22.0078125 27.66796875 19.37109375 27.66796875 L 19.37109375 27.66796875 Q 16.91015625 27.66796875 15.064453125 28.51171875 Q 13.21875 29.35546875 12.181640625 30.7265625 Q 11.14453125 32.09765625 11.14453125 33.6796875 L 11.14453125 33.6796875 L 4.640625 33.6796875 Q 4.640625 31.640625 5.6953125 29.63671875 Q 6.75 27.6328125 8.736328125 25.998046875 Q 10.72265625 24.36328125 13.517578125 23.396484375 Q 16.3125 22.4296875 19.7578125 22.4296875 L 19.7578125 22.4296875 Q 23.90625 22.4296875 27.087890625 23.8359375 Q 30.26953125 25.2421875 32.080078125 28.072265625 Q 33.890625 30.90234375 33.890625 35.15625 L 33.890625 35.15625 L 33.890625 52.875 Q 33.890625 54.7734375 34.224609375 56.91796875 Q 34.55859375 59.0625 35.2265625 60.609375 L 35.2265625 60.609375 L 35.2265625 61.171875 L 28.44140625 61.171875 Q 27.94921875 60.046875 27.66796875 58.166015625 Q 27.38671875 56.28515625 27.38671875 54.66796875 Z M 20.953125 38.109375 L 28.51171875 38.109375 L 28.58203125 42.6796875 L 22.0078125 42.6796875 Q 19.23046875 42.6796875 17.05078125 43.119140625 Q 14.87109375 43.55859375 13.39453125 44.4375 Q 11.91796875 45.31640625 11.14453125 46.634765625 Q 10.37109375 47.953125 10.37109375 49.7109375 L 10.37109375 49.7109375 Q 10.37109375 51.50390625 11.1796875 52.98046875 Q 11.98828125 54.45703125 13.623046875 55.318359375 Q 15.2578125 56.1796875 17.6484375 56.1796875 L 17.6484375 56.1796875 Q 20.63671875 56.1796875 22.921875 54.9140625 Q 25.20703125 53.6484375 26.560546875 51.8203125 Q 27.9140625 49.9921875 28.01953125 48.26953125 L 28.01953125 48.26953125 L 30.796875 51.3984375 Q 30.55078125 52.875 29.4609375 54.66796875 Q 28.37109375 56.4609375 26.560546875 58.095703125 Q 24.75 59.73046875 22.271484375 60.802734375 Q 19.79296875 61.875 16.69921875 61.875 L 16.69921875 61.875 Q 12.83203125 61.875 9.931640625 60.36328125 Q 7.03125 58.8515625 5.431640625 56.302734375 Q 3.83203125 53.75390625 3.83203125 50.58984375 L 3.83203125 50.58984375 Q 3.83203125 47.53125 5.02734375 45.193359375 Q 6.22265625 42.85546875 8.47265625 41.291015625 Q 10.72265625 39.7265625 13.88671875 38.91796875 Q 17.05078125 38.109375 20.953125 38.109375 L 20.953125 38.109375 Z M 9.140625 12.97265625 L 9.140625 12.97265625 Q 9.140625 11.390625 10.107421875 10.30078125 Q 11.07421875 9.2109375 12.97265625 9.2109375 L 12.97265625 9.2109375 Q 14.8359375 9.2109375 15.837890625 10.30078125 Q 16.83984375 11.390625 16.83984375 12.97265625 L 16.83984375 12.97265625 Q 16.83984375 14.484375 15.837890625 15.556640625 Q 14.8359375 16.62890625 12.97265625 16.62890625 L 12.97265625 16.62890625 Q 11.07421875 16.62890625 10.107421875 15.556640625 Q 9.140625 14.484375 9.140625 12.97265625 Z M 24.2578125 13.04296875 L 24.2578125 13.04296875 Q 24.2578125 11.4609375 25.2421875 10.37109375 Q 26.2265625 9.28125 28.08984375 9.28125 L 28.08984375 9.28125 Q 29.98828125 9.28125 30.97265625 10.37109375 Q 31.95703125 11.4609375 31.95703125 13.04296875 L 31.95703125 13.04296875 Q 31.95703125 14.5546875 30.97265625 15.626953125 Q 29.98828125 16.69921875 28.08984375 16.69921875 L 28.08984375 16.69921875 Q 26.2265625 16.69921875 25.2421875 15.626953125 Q 24.2578125 14.5546875 24.2578125 13.04296875 Z M 8.82421875 0 L 32.44921875 0 L 32.44921875 4.9921875 L 8.82421875 4.9921875 L 8.82421875 0 Z"></path></g></svg>